<svg width="212" height="64" viewBox="0 0 212 64" fill="none" xmlns="http://www.w3.org/2000/svg">
<path d="M161.295 63.5172C163.334 63.5172 164.987 61.864 164.987 59.8247C164.987 57.7854 163.334 56.1323 161.295 56.1323C159.255 56.1323 157.602 57.7854 157.602 59.8247C157.602 61.864 159.255 63.5172 161.295 63.5172Z" fill="#120D02"/>
<path d="M176.721 56.5503H198.736V61.5828H170.556V15.1127H176.721V56.5503ZM211.231 61.5828H205.327V27.0734H211.231V61.5828Z" fill="#120D02"/>
<path d="M208.138 22.4976C210.177 22.4976 211.83 20.8444 211.83 18.8051C211.83 16.7658 210.177 15.1126 208.138 15.1126C206.098 15.1126 204.445 16.7658 204.445 18.8051C204.445 20.8444 206.098 22.4976 208.138 22.4976Z" fill="#120D02"/>
<path d="M89.2847 59.259C92.9745 56.216 96.0268 51.1579 98.1155 44.4935C98.3695 42.629 97.1831 41.0186 95.4035 40.6795C93.4542 40.5103 92.0133 41.612 91.6746 43.2223C91.4918 43.7827 91.2949 44.3277 91.089 44.8582C91.1602 44.8363 91.244 44.8437 91.3321 44.9007C91.485 44.9996 91.6514 45.2481 91.7304 45.5795C91.809 45.9108 91.8004 46.3258 91.6762 46.6412C91.5519 46.9565 91.3127 47.1725 91.117 47.2777C90.9952 47.343 90.8904 47.3656 90.8068 47.3692C90.9823 47.8048 91.3232 48.2298 91.9286 48.646C93.9104 57.3155 98.3054 62.4452 104.643 62.7034C106.86 62.7932 108.29 62.4957 110.312 61.4902C115.165 59.0738 119.11 53.3764 122.38 44.5007C122.9 43.0919 122.568 42.01 121.103 40.9409C119.432 39.7218 117.094 40.5156 116.337 42.636C113.613 50.2613 109.86 55.1982 106.113 56.1827C105.79 56.2431 105.469 56.2737 105.15 56.2737C101.59 56.2737 98.9629 52.1209 97.8612 45.2561C105.234 31.1879 107.946 22.7129 107.946 14.153C107.946 5.08486 105.489 0 100.488 0C93.4542 0 90.7422 12.0344 90.7422 36.4424C90.7422 38.4784 90.8322 40.3803 90.9789 42.2119C91.0818 43.5032 91.1647 44.2127 90.7249 45.5212C90.486 46.234 90.2711 46.8218 89.9589 47.5063C88.8517 49.9326 87.5018 51.9184 86.0607 53.3678C85.3127 54.1199 84.3022 55.065 83.3744 55.5671C82.4055 56.0921 81.4323 56.3655 80.4774 56.3655C76.918 56.3655 74.2908 52.2127 73.1891 45.348C80.5621 31.2798 83.2742 22.8047 83.2742 14.2449C83.2742 5.17673 80.8165 0.0918575 75.8164 0.0918575C68.7821 0.0918575 66.0701 12.1262 66.0701 36.5342C66.0701 38.5702 66.1601 40.4721 66.3068 42.3037C66.4098 43.595 66.4926 44.3046 66.0527 45.6131C65.8139 46.3258 65.599 46.9137 65.2868 47.5982C62.8307 52.98 59.1816 56.1959 55.985 56.1959C53.2955 56.1959 51.02 54.4815 49.849 50.5596C49.8317 50.4872 49.8105 50.4141 49.7907 50.342C49.2806 48.4814 49.4337 47.9509 50.8709 46.6871C54.7495 43.28 56.7476 39.4801 56.7476 35.3477C56.7476 30.8559 54.3747 28.0591 50.3915 28.0591C42.4538 28.0591 43.688 40.24 42.4023 45.0099C42.2925 45.4155 42.114 46.016 41.9932 46.4747C40.2691 51.9714 37.4758 56.1959 33.9217 56.1959C32.5656 56.1959 31.6335 55.8569 30.9556 55.0095C29.4301 53.3992 28.9215 50.0091 29.5149 45.5175C31.0684 34.3305 29.289 28.1439 22.2547 28.1439C16.4916 28.1439 13.017 33.6527 9.5421 40.1784C8.94896 41.28 8.27086 42.636 7.59302 43.992C7.50822 42.8903 7.42342 41.7039 7.42342 40.687V40.5175C13.017 31.788 18.1019 21.0249 18.1019 12.0415C18.1019 6.10922 15.8986 1.2783 10.898 1.2783C3.7793 1.2783 1.06732 12.8892 1.06732 37.8902C1.06732 39.6698 1.06732 40.8562 1.15212 41.7886L0.389215 42.8055C-0.203918 43.7377 -0.119122 45.0089 0.643515 45.7718C0.813019 45.9414 1.06732 46.1107 1.32162 46.1954C1.45818 49.473 1.76 52.751 2.13787 55.6297C2.49049 58.3189 1.50782 63.0792 6.03453 62.6211C9.6851 62.2537 8.63089 58.4392 9.04206 55.6501C9.81053 50.4453 11.9661 46.0431 14.2882 41.7039C15.7881 38.9009 17.4167 36.8039 18.755 35.6363C20.2251 34.3543 22.5956 33.9615 23.4513 36.0456C24.0558 37.5187 23.7925 40.2335 23.102 44.7546C22.2217 50.5168 23.2294 55.9416 25.9552 59.4163C27.9046 61.4504 30.7013 62.6368 33.9217 62.6368C40.2812 62.6368 45.3851 56.9102 47.952 49.1558C47.9032 49.0122 47.8629 48.8649 47.8336 48.7141C47.6597 47.8233 47.8715 46.8326 48.1147 46.1784C48.1335 46.1282 48.1523 46.0798 48.1715 46.0335C47.7738 45.0885 46.9119 44.361 45.8149 44.1616C44.8682 43.9621 43.9512 44.2026 43.2182 44.7784C43.3162 45.0647 43.3938 45.4093 43.3704 45.8594C43.3448 46.3495 43.1993 46.9648 43.0477 47.3156C42.9516 47.5378 42.8526 47.6544 42.7493 47.7132C43.699 58.7649 48.9433 62.6368 55.985 62.6368C63.5276 62.6368 69.8837 55.9416 73.4434 44.5854C73.6974 42.7208 72.511 41.1105 70.7314 40.7714C68.782 40.6022 67.3413 41.7039 67.0025 43.3141C66.8197 43.8746 66.6227 44.4196 66.4168 44.9501C66.488 44.9282 66.5719 44.9356 66.66 44.9926C66.8129 45.0915 66.9794 45.34 67.0583 45.6714C67.1369 46.0027 67.1283 46.4176 67.0041 46.733C66.8798 47.0484 66.6406 47.2644 66.4448 47.3695C66.3231 47.4349 66.2183 47.4574 66.1348 47.461C66.3101 47.8966 66.6511 48.3217 67.2565 48.7378C69.2906 57.6368 73.8669 62.8064 80.4774 62.8064C83.6832 62.8064 86.6168 61.6203 89.2847 59.2908V59.259ZM155.935 40.5175C155.087 39.6698 153.901 39.6698 153.816 39.6698C152.436 39.6698 151.248 40.6348 150.686 41.8435C149.604 44.1678 147.891 46.1954 145.002 46.1954H144.239C144.578 44.7546 144.748 43.5682 144.748 42.8055C144.748 35.4322 142.375 30.3473 138.307 30.3473C137.798 30.3473 137.29 30.4321 136.866 30.5168H136.782C135.934 29.8389 133.9 29.4151 131.866 29.4151C127.628 29.4151 123.306 31.6185 120.34 35.1782C117.459 38.3137 115.763 42.7208 115.763 47.0431C115.763 51.7889 116.95 55.6026 119.323 58.2298C121.611 60.857 125.001 62.2978 128.9 62.2978C133.052 62.2978 137.29 59.8402 140.256 55.7721C141.104 54.5857 141.867 53.2297 142.46 51.7041C143.222 51.8737 144.07 51.9584 145.002 51.9584C150.765 51.9584 154.324 49.2464 156.528 44.5007C157.291 42.9751 157.036 41.6191 155.935 40.5175ZM132.798 37.1273C132.798 42.2969 134.408 46.6193 137.459 49.2464C135.171 53.2297 131.612 55.8569 128.9 55.8569C126.866 55.8569 125.34 55.2638 124.154 53.9923C122.883 52.467 122.205 50.2634 122.205 47.0431C122.205 44.2463 123.222 41.6191 125.171 39.3309C126.872 37.4294 129.235 35.7534 131.866 35.856C132.656 35.8869 132.798 35.8838 132.798 37.1273ZM137.798 39.6698C137.798 38.7376 137.968 38.1442 138.646 38.0597C139.324 38.0597 139.748 39.1614 139.748 40.7714C139.748 41.7039 139.663 42.636 139.493 43.5682C138.476 42.3817 137.798 40.9409 137.798 39.6698ZM10.898 7.71921C11.4914 7.71921 11.661 8.99044 11.661 10.8551C11.661 17.5503 10.1355 24.1607 7.59302 30.2625C8.18641 16.6181 9.88119 7.71921 10.898 7.71921ZM50.6458 34.5C51.0696 34.5 51.3236 34.8391 51.3236 35.6017C51.3236 37.7207 50.6458 39.8393 49.0355 42.0429C49.205 35.5169 50.1372 34.5 50.6458 34.5ZM75.8164 6.53276C76.4942 6.53276 76.8333 7.12615 76.8333 11.7024C76.8333 18.3976 75.562 24.415 72.511 31.788C72.8501 9.83814 74.9687 6.53276 75.8164 6.53276ZM100.488 6.44089C101.166 6.44089 101.505 7.0343 101.505 11.6106C101.505 18.3058 100.234 24.3231 97.1831 31.6962C97.5221 9.74627 99.6408 6.44089 100.488 6.44089Z" fill="#120D02"/>
</svg>
