<svg width="73" height="30" viewBox="0 0 73 30" fill="none" xmlns="http://www.w3.org/2000/svg">
<path d="M41.356 27.4483C43.065 26.0388 44.4788 23.6959 45.4463 20.609C45.5639 19.7454 45.0144 18.9995 44.1901 18.8424C43.2872 18.764 42.6198 19.2743 42.4629 20.0202C42.3783 20.2798 42.287 20.5322 42.1917 20.778C42.2246 20.7678 42.2635 20.7712 42.3043 20.7976C42.3751 20.8435 42.4522 20.9585 42.4888 21.1121C42.5252 21.2655 42.5212 21.4577 42.4636 21.6038C42.4061 21.7499 42.2953 21.8499 42.2046 21.8986C42.1482 21.9289 42.0997 21.9393 42.061 21.941C42.1422 22.1428 42.3002 22.3397 42.5806 22.5324C43.4985 26.5481 45.5342 28.9241 48.4699 29.0437C49.4965 29.0853 50.1591 28.9475 51.0957 28.4817C53.3434 27.3625 55.1708 24.7235 56.6856 20.6123C56.926 19.9598 56.7724 19.4587 56.0939 18.9635C55.3199 18.3988 54.2372 18.7665 53.8864 19.7487C52.6247 23.2806 50.8865 25.5673 49.1506 26.0234C49.0011 26.0513 48.8523 26.0655 48.7044 26.0655C47.0557 26.0655 45.8388 24.1419 45.3285 20.9623C48.7436 14.446 49.9998 10.5204 49.9998 6.55557C49.9998 2.35527 48.8614 0 46.5454 0C43.2872 0 42.031 5.57426 42.031 16.8798C42.031 17.8229 42.0727 18.7038 42.1407 19.5522C42.1883 20.1503 42.2268 20.479 42.023 21.0851C41.9124 21.4152 41.8128 21.6875 41.6682 22.0045C41.1554 23.1284 40.5301 24.0482 39.8626 24.7195C39.5161 25.0679 39.0481 25.5056 38.6183 25.7382C38.1695 25.9814 37.7188 26.1081 37.2765 26.1081C35.6278 26.1081 34.4109 24.1845 33.9006 21.0048C37.3157 14.4885 38.5719 10.563 38.5719 6.59812C38.5719 2.39782 37.4335 0.0425476 35.1175 0.0425476C31.8593 0.0425476 30.6031 5.61677 30.6031 16.9224C30.6031 17.8654 30.6448 18.7464 30.7128 19.5947C30.7605 20.1929 30.7988 20.5215 30.5951 21.1276C30.4845 21.4577 30.3849 21.73 30.2403 22.0471C29.1026 24.5399 27.4124 26.0295 25.9318 26.0295C24.686 26.0295 23.6321 25.2354 23.0896 23.4188C23.0816 23.3853 23.0718 23.3514 23.0626 23.318C22.8264 22.4562 22.8973 22.2105 23.563 21.6251C25.3595 20.0469 26.285 18.2869 26.285 16.3728C26.285 14.2922 25.1859 12.9967 23.3409 12.9967C19.6642 12.9967 20.2359 18.6388 19.6404 20.8482C19.5895 21.0361 19.5069 21.3142 19.4509 21.5267C18.6523 24.0727 17.3585 26.0295 15.7122 26.0295C15.0841 26.0295 14.6524 25.8725 14.3384 25.4799C13.6318 24.7341 13.3962 23.1638 13.6711 21.0833C14.3906 15.9016 13.5664 13.036 10.3082 13.036C7.63877 13.036 6.02936 15.5876 4.41982 18.6103C4.14509 19.1206 3.83099 19.7487 3.51702 20.3767C3.47775 19.8664 3.43847 19.3169 3.43847 18.8459V18.7673C6.02936 14.724 8.38467 9.73856 8.38467 5.57753C8.38467 2.82974 7.36408 0.592099 5.04788 0.592099C1.75054 0.592099 0.494374 5.97018 0.494374 17.5504C0.494374 18.3747 0.494374 18.9242 0.533651 19.3561L0.180281 19.8272C-0.0944531 20.2589 -0.0551764 20.8478 0.298071 21.2011C0.376584 21.2797 0.494374 21.3581 0.612164 21.3973C0.675416 22.9155 0.815217 24.4338 0.990245 25.7672C1.15357 27.0128 0.698409 29.2178 2.79514 29.0056C4.48606 28.8354 3.99776 27.0685 4.18821 25.7767C4.54416 23.3658 5.54261 21.3268 6.61818 19.3169C7.31294 18.0186 8.06726 17.0473 8.68718 16.5064C9.3681 15.9126 10.4661 15.7307 10.8624 16.696C11.1424 17.3784 11.0205 18.6358 10.7007 20.73C10.2929 23.399 10.7597 25.9117 12.0222 27.5211C12.9252 28.4633 14.2206 29.0129 15.7122 29.0129C18.6579 29.0129 21.022 26.3603 22.211 22.7686C22.1884 22.702 22.1697 22.6338 22.1561 22.564C22.0756 22.1513 22.1737 21.6925 22.2863 21.3895C22.295 21.3662 22.3038 21.3438 22.3126 21.3224C22.1285 20.8846 21.7292 20.5477 21.2211 20.4553C20.7826 20.3629 20.3578 20.4743 20.0183 20.741C20.0637 20.8736 20.0997 21.0332 20.0888 21.2417C20.077 21.4687 20.0096 21.7537 19.9393 21.9162C19.8948 22.0191 19.849 22.0731 19.8011 22.1004C20.241 27.2194 22.6701 29.0129 25.9318 29.0129C29.4255 29.0129 32.3695 25.9117 34.0184 20.6516C34.136 19.7879 33.5865 19.042 32.7622 18.885C31.8593 18.8066 31.1919 19.3169 31.035 20.0628C30.9503 20.3223 30.8591 20.5748 30.7637 20.8205C30.7967 20.8104 30.8355 20.8138 30.8764 20.8402C30.9472 20.886 31.0243 21.0011 31.0608 21.1546C31.0973 21.3081 31.0933 21.5002 31.0357 21.6463C30.9782 21.7924 30.8674 21.8925 30.7767 21.9412C30.7203 21.9714 30.6718 21.9819 30.6331 21.9836C30.7143 22.1853 30.8722 22.3822 31.1527 22.575C32.0949 26.6969 34.2145 29.0914 37.2765 29.0914C38.7614 29.0914 40.1202 28.542 41.356 27.463V27.4483ZM72.2277 18.7673C71.8352 18.3747 71.2856 18.3747 71.2464 18.3747C70.6073 18.3747 70.057 18.8217 69.7966 19.3816C69.2953 20.4581 68.502 21.3973 67.1637 21.3973H66.8105C66.9676 20.73 67.0461 20.1804 67.0461 19.8272C67.0461 16.4119 65.9468 14.0566 64.0626 14.0566C63.8271 14.0566 63.5915 14.0959 63.3952 14.1351H63.3561C62.9634 13.8212 62.0214 13.6249 61.0792 13.6249C59.1164 13.6249 57.1145 14.6454 55.7405 16.2942C54.4058 17.7466 53.6207 19.7879 53.6207 21.79C53.6207 23.9882 54.1704 25.7547 55.2695 26.9716C56.3294 28.1885 57.8995 28.8558 59.7052 28.8558C61.6288 28.8558 63.5915 27.7175 64.9655 25.8332C65.358 25.2836 65.7114 24.6555 65.9861 23.9489C66.3395 24.0275 66.732 24.0667 67.1637 24.0667C69.8331 24.0667 71.4818 22.8105 72.5025 20.6123C72.8558 19.9057 72.738 19.2776 72.2277 18.7673ZM61.5111 17.197C61.5111 19.5916 62.2568 21.5937 63.6701 22.8105C62.6102 24.6555 60.9614 25.8725 59.7052 25.8725C58.7632 25.8725 58.0566 25.5977 57.507 25.0088C56.9182 24.3023 56.6042 23.2816 56.6042 21.79C56.6042 20.4945 57.0752 19.2776 57.978 18.2178C58.7662 17.337 59.8606 16.5607 61.0792 16.6082C61.4451 16.6225 61.5111 16.6211 61.5111 17.197ZM63.8271 18.3747C63.8271 17.9429 63.9056 17.6681 64.2196 17.6289C64.5337 17.6289 64.7299 18.1392 64.7299 18.885C64.7299 19.3169 64.6906 19.7487 64.6121 20.1804C64.1411 19.6309 63.8271 18.9635 63.8271 18.3747ZM5.04788 3.57547C5.32274 3.57547 5.40129 4.1643 5.40129 5.02798C5.40129 8.12914 4.69468 11.191 3.51702 14.0173C3.79188 7.69738 4.57689 3.57547 5.04788 3.57547ZM23.4587 15.9801C23.655 15.9801 23.7727 16.1372 23.7727 16.4904C23.7727 17.4719 23.4587 18.4532 22.7128 19.4739C22.7914 16.4512 23.2231 15.9801 23.4587 15.9801ZM35.1175 3.02592C35.4315 3.02592 35.5885 3.30078 35.5885 5.42046C35.5885 8.52162 34.9997 11.3088 33.5865 14.7239C33.7435 4.55694 34.7249 3.02592 35.1175 3.02592ZM46.5454 2.98337C46.8594 2.98337 47.0164 3.25823 47.0164 5.37792C47.0164 8.47908 46.4276 11.2663 45.0144 14.6814C45.1714 4.51439 46.1528 2.98337 46.5454 2.98337Z" fill="#120D02"/>
</svg>
